# xmcd CD database file
#
# Track frame offsets:
#	150
#	14582
#	24152
#	34505
#	46462
#	56455
#	67775
#	82785
#	93947
#	105432
#	115590
#	134617
#	143217
#	153305
#	162655
#
# Disc length: 2273 seconds
#
# Revision: 2
# Processed by: cddbd v1.5.2PL0 Copyright (c) Steve Scherf et al.
# Submitted via: jetAudio 7
#
DISCID=b208df0f
DTITLE=Various Artist - Giants Of Country and Western Disc 1
DYEAR=1900
DGENRE=Country
TTITLE0=Sunshine
TTITLE1=We're Together Again
TTITLE2=Mule Skinner Blues
TTITLE3=You Made Me What I Am
TTITLE4=Release Me
TTITLE5=Mean Eyed Cat
TTITLE6=Face Of A Fighter
TTITLE7=Sunday Girl
TTITLE8=Follow Me Back To Louisville
TTITLE9=Devil Woman
TTITLE10=Tennessee Queen
TTITLE11=Blue Is The Way I Feel
TTITLE12=Hello Walls
TTITLE13=World's Worst Looser
TTITLE14=I Can't Help It
EXTD=
EXTT0=
EXTT1=
EXTT2=
EXTT3=
EXTT4=
EXTT5=
EXTT6=
EXTT7=
EXTT8=
EXTT9=
EXTT10=
EXTT11=
EXTT12=
EXTT13=
EXTT14=
PLAYORDER=
